HIERARCHY
ROOT SpineBase
{
  OFFSET 0.000000 0.000000 0.000000
  CHANNELS 6 Xposition Yposition Zposition Zrotation Xrotation Yrotation
  JOINT SpineMid
  {
    OFFSET -0.000000 31.056154 0.000000
    CHANNELS 3 Zrotation Xrotation Yrotation
    JOINT SpineShoulder
    {
      OFFSET 0.027597 23.043371 -0.744457
      CHANNELS 3 Zrotation Xrotation Yrotation
      JOINT Neck
      {
        OFFSET 0.024534 7.620010 -0.569975
        CHANNELS 3 Zrotation Xrotation Yrotation
        JOINT Head
        {
          OFFSET -3.709661 13.025378 1.781636
          CHANNELS 3 Zrotation Xrotation Yrotation
          End Site
          {
            OFFSET 0 0 0
          }
        }
      }
      JOINT ShoulderLeft
      {
        OFFSET -16.428765 -4.566847 7.503550
        CHANNELS 3 Zrotation Xrotation Yrotation
        JOINT ElbowLeft
        {
          OFFSET -3.597795 -27.480890 3.289085
          CHANNELS 3 Zrotation Xrotation Yrotation
          JOINT WristLeft
          {
            OFFSET -0.428385 -22.283627 -4.502715
            CHANNELS 3 Zrotation Xrotation Yrotation
            JOINT HandLeft
            {
              OFFSET -0.692993 -8.137009 -0.617614
              CHANNELS 3 Zrotation Xrotation Yrotation
              JOINT HandTipLeft
              {
                OFFSET 0.532928 -8.190550 0.386950
                CHANNELS 3 Zrotation Xrotation Yrotation
                End Site
                {
                  OFFSET 0 0 0
                }
              }
              JOINT ThumbLeft
              {
                OFFSET -1.961908 -0.205204 -3.090554
                CHANNELS 3 Zrotation Xrotation Yrotation
                End Site
                {
                  OFFSET 0 0 0
                }
              }
            }
          }
        }
      }
      JOINT ShoulderRight
      {
        OFFSET 14.168578 -3.857771 -7.108941
        CHANNELS 3 Zrotation Xrotation Yrotation
        JOINT ElbowRight
        {
          OFFSET 7.107108 -25.096035 -4.334564
          CHANNELS 3 Zrotation Xrotation Yrotation
          JOINT WristRight
          {
            OFFSET 1.979607 -21.624520 -7.224108
            CHANNELS 3 Zrotation Xrotation Yrotation
            JOINT HandRight
            {
              OFFSET -1.790515 -7.604096 -1.203130
              CHANNELS 3 Zrotation Xrotation Yrotation
              JOINT HandTipRight
              {
                OFFSET -0.126306 -7.311252 -0.393700
                CHANNELS 3 Zrotation Xrotation Yrotation
                End Site
                {
                  OFFSET 0 0 0
                }
              }
              JOINT ThumbRight
              {
                OFFSET -2.794106 0.039339 -1.359793
                CHANNELS 3 Zrotation Xrotation Yrotation
                End Site
                {
                  OFFSET 0 0 0
                }
              }
            }
          }
        }
      }
    }
  }
  JOINT HipLeft
  {
    OFFSET -6.723050 0.014824 -0.935893
    CHANNELS 3 Zrotation Xrotation Yrotation
    JOINT KneeLeft
    {
      OFFSET 3.549182 -38.096189 4.582389
      CHANNELS 3 Zrotation Xrotation Yrotation
      JOINT AnkleLeft
      {
        OFFSET 7.258646 -36.351948 8.385201
        CHANNELS 3 Zrotation Xrotation Yrotation
        JOINT FootLeft
        {
          OFFSET -2.579044 -7.953652 -6.110456
          CHANNELS 3 Zrotation Xrotation Yrotation
          End Site
          {
            OFFSET 0 0 0
          }
        }
      }
    }
  }
  JOINT HipRight
  {
    OFFSET 7.079675 1.557860 -6.055374
    CHANNELS 3 Zrotation Xrotation Yrotation
    JOINT KneeRight
    {
      OFFSET 7.225884 -35.934885 -11.196425
      CHANNELS 3 Zrotation Xrotation Yrotation
      JOINT AnkleRight
      {
        OFFSET 11.366823 -37.979221 11.295646
        CHANNELS 3 Zrotation Xrotation Yrotation
        JOINT FootRight
        {
          OFFSET 0.405204 -7.431462 -7.221148
          CHANNELS 3 Zrotation Xrotation Yrotation
          End Site
          {
            OFFSET 0 0 0
          }
        }
      }
    }
  }
}
MOTION
Frames: 10
Frame Time: 0.033333
-19.995761 83.107622 350.898769 0.000000 0.000000 20.349999 -0.000000 0.000000 -20.349999 -0.000000 0.000000 0.000000 -0.000000 0.000000 0.000000 0.000000 0.000000 0.000000 -0.000000 0.000000 0.000000 -0.000000 0.000000 0.000000 -0.000000 0.000000 0.000000 -0.000000 0.000000 0.000000 0.000000 0.000000 0.000000 0.000000 0.000000 0.000000 -0.000000 0.000000 0.000000 -0.000000 0.000000 0.000000 -0.000000 0.000000 0.000000 -0.000000 0.000000 0.000000 0.000000 0.000000 0.000000 0.000000 0.000000 0.000000 -0.000000 0.000000 -20.349999 -0.000000 0.000000 0.000000 -0.000000 0.000000 0.000000 0.000000 0.000000 0.000000 -0.000000 0.000000 -20.349999 -0.000000 0.000000 0.000000 -0.000000 0.000000 0.000000 0.000000 0.000000 0.000000
-20.253258 83.118086 351.303304 0.168571 -0.059690 20.627517 -0.136736 0.115249 -20.627292 -0.000000 0.000000 0.000000 -0.000000 0.000000 0.000000 0.000000 0.000000 0.000000 -0.000000 0.000000 0.000000 -0.000000 0.000000 0.000000 0.865503 -2.663587 0.181752 -0.331889 4.363582 -0.038721 0.000000 0.000000 0.000000 0.000000 0.000000 0.000000 -0.000000 0.000000 0.000000 -0.000000 0.000000 0.000000 2.492467 -4.753326 0.838725 -2.010592 7.610862 -0.748689 0.000000 0.000000 0.000000 0.000000 0.000000 0.000000 -0.136736 0.115249 -20.627292 -0.000000 0.000000 0.000000 0.532737 0.504210 -0.574043 0.000000 0.000000 0.000000 -0.136736 0.115249 -20.627292 -0.505154 1.162255 0.203628 -1.640467 2.796192 2.073961 0.000000 0.000000 0.000000
-20.462554 83.126868 351.609236 0.312762 -0.112131 20.978635 -0.251887 0.216671 -20.977853 -0.000000 0.000000 0.000000 1.150270 -0.142561 -0.195985 0.000000 0.000000 0.000000 -0.000000 0.000000 0.000000 -0.000000 0.000000 0.000000 1.436911 -4.809722 0.362686 -0.579536 7.860518 -0.097978 0.000000 0.000000 0.000000 0.000000 0.000000 0.000000 0.953389 -0.762688 -0.373868 -0.958429 0.756345 0.386540 4.787703 -8.817823 1.729817 -3.663884 13.735490 -1.308730 0.000000 0.000000 0.000000 0.000000 0.000000 0.000000 -0.251887 0.216671 -20.977853 -0.000000 0.000000 0.000000 0.998982 0.890068 -1.060513 0.000000 0.000000 0.000000 -0.491641 -0.956510 -21.278918 -1.180921 3.408022 0.725307 -2.804407 4.544010 3.557075 0.000000 0.000000 0.000000
-20.623650 83.133966 351.816563 0.432215 -0.157198 21.404247 -0.345041 0.304086 -21.402738 -0.000000 0.000000 0.000000 1.649922 -0.065999 -0.242566 0.000000 0.000000 0.000000 0.700221 0.561182 0.006918 -0.700323 -0.561055 -0.013776 1.704608 -6.425603 0.516968 -0.746335 10.471155 -0.157506 0.000000 0.000000 0.000000 0.000000 0.000000 0.000000 1.317205 -1.137276 -0.535696 -1.328036 1.124609 0.561804 6.781753 -12.045654 2.567192 -4.954153 18.160313 -1.709650 0.000000 0.000000 0.000000 0.000000 0.000000 0.000000 0.206037 1.153337 -21.292818 -0.205114 -0.991358 -0.118704 1.397774 1.161113 -1.458917 0.000000 0.000000 0.000000 -0.778508 -1.707623 -21.922086 -1.761753 5.224898 1.167286 -3.436138 5.336501 4.424195 0.000000 0.000000 0.000000
-20.736545 83.139382 351.925286 0.526664 -0.194795 21.905827 -0.415973 0.377211 -21.903562 -0.000000 0.000000 0.000000 2.102264 0.108011 -0.257425 0.000000 0.000000 0.000000 -0.000000 0.000000 0.000000 -0.000000 0.000000 0.000000 1.661868 -7.507217 0.627053 -0.838049 12.187270 -0.204682 0.000000 0.000000 0.000000 0.000000 0.000000 0.000000 1.606295 -1.506318 -0.681780 -1.244192 0.635460 0.514648 8.034576 -13.490488 3.330522 -5.877755 20.780551 -1.973220 0.000000 0.000000 0.000000 0.000000 0.000000 0.000000 0.219173 1.307058 -21.781178 -0.244836 -1.099087 -0.134069 1.728530 1.320210 -1.768938 0.000000 0.000000 0.000000 -1.104423 -2.640121 -22.689465 -2.339970 7.114690 1.664519 -3.519889 5.253561 4.682022 0.000000 0.000000 0.000000
-20.801240 83.143114 351.935406 0.595938 -0.224853 22.485434 -0.464652 0.435663 -22.482499 -0.000000 0.000000 0.000000 2.508992 0.379208 -0.241925 0.000000 0.000000 0.000000 -0.000000 0.000000 0.000000 -0.000000 0.000000 0.000000 1.304788 -8.054150 0.684203 -0.859907 13.005721 -0.235373 0.000000 0.000000 0.000000 0.000000 0.000000 0.000000 1.821226 -1.869167 -0.812881 -1.314686 0.670182 0.579378 9.042670 -14.553785 3.788694 -6.435233 21.575744 -2.113107 0.000000 0.000000 0.000000 0.000000 0.000000 0.000000 0.201431 1.345728 -22.358504 -0.269887 -1.094961 -0.136928 1.990975 1.369475 -1.990358 0.000000 0.000000 0.000000 -1.481038 -3.753099 -23.586815 -2.918956 9.076462 2.218889 -3.061163 4.335626 4.352372 0.000000 0.000000 0.000000
-20.769697 83.161706 351.853546 0.625092 -0.261433 23.460531 -0.469356 0.488667 -23.457103 -0.000000 0.000000 0.000000 3.072365 0.858355 -0.197190 0.000000 0.000000 0.000000 -0.000000 0.000000 0.000000 -0.000000 0.000000 0.000000 -0.647209 -7.519127 0.650813 -0.218705 11.669153 -0.358650 0.000000 0.000000 0.000000 0.000000 0.000000 0.000000 1.981878 -2.508776 -1.008379 -1.001627 0.650860 0.565683 9.038478 -14.666935 4.170295 -5.794394 19.077047 -2.409614 0.000000 0.000000 0.000000 0.000000 0.000000 0.000000 0.145683 1.328858 -23.344514 -0.231806 -1.015068 -0.124397 2.147895 1.332088 -2.101035 0.000000 0.000000 0.000000 -2.209745 -5.527859 -25.057873 -3.520554 11.837381 3.016133 -0.996596 0.081415 2.316041 0.000000 0.000000 0.000000
-20.704015 83.154090 351.608781 0.633950 -0.272407 24.327166 -0.465462 0.509358 -24.323590 -0.000000 0.000000 0.000000 3.378123 1.453148 -0.090256 0.000000 0.000000 0.000000 -0.545496 -1.127113 0.076773 0.547111 1.126330 -0.087517 -2.555402 -5.370675 0.532731 0.141293 8.723326 -0.370661 0.000000 0.000000 0.000000 0.000000 0.000000 0.000000 2.004487 -2.872850 -1.109005 -0.788500 0.452825 0.540925 8.925241 -13.427585 3.973487 -6.035382 15.231558 -2.056361 0.000000 0.000000 0.000000 0.000000 0.000000 0.000000 -0.465462 0.509358 -24.323590 -0.000000 0.000000 0.000000 2.429043 1.106614 -2.247200 0.000000 0.000000 0.000000 -2.949749 -7.326584 -26.460604 -4.088844 14.534039 3.871902 -2.275062 2.033506 3.537824 0.000000 0.000000 0.000000
-20.634467 83.148862 351.278424 0.625057 -0.243534 25.036612 -0.463279 0.485160 -25.033322 -0.000000 0.000000 0.000000 3.668474 1.959396 -0.006537 0.000000 0.000000 0.000000 -1.044905 -1.870693 0.102486 1.048807 1.868509 -0.136649 -3.109301 -5.095807 0.532504 0.170067 7.988044 -0.423839 0.000000 0.000000 0.000000 0.000000 0.000000 0.000000 2.038340 -3.097906 -1.174030 -0.841747 0.254934 0.584237 8.833366 -11.977101 3.580088 -5.527532 11.735839 -1.873853 0.000000 0.000000 0.000000 0.000000 0.000000 0.000000 -0.463279 0.485160 -25.033322 -0.000000 0.000000 0.000000 2.698123 0.826092 -2.365191 0.000000 0.000000 0.000000 -3.525218 -8.897859 -27.671915 -4.675921 16.487204 4.564904 -0.516855 -1.064844 1.799018 0.000000 0.000000 0.000000
-20.566130 83.132085 350.916654 0.607461 -0.206768 25.539616 -0.458974 0.448451 -25.536723 -0.000000 0.000000 0.000000 3.734115 2.327361 0.075205 0.000000 0.000000 0.000000 -1.388776 -2.491189 0.129233 1.680195 1.321584 -0.235126 -2.468923 -4.791416 0.644695 -0.457578 8.073723 -0.451444 0.000000 0.000000 0.000000 0.000000 0.000000 0.000000 1.982956 -3.117940 -1.171487 -1.028881 -0.649904 0.595729 8.720082 -8.426723 2.542876 -5.492531 8.276024 -1.256419 0.000000 0.000000 0.000000 0.000000 0.000000 0.000000 -0.458974 0.448451 -25.536723 -0.000000 0.000000 0.000000 2.655441 0.648125 -2.272521 0.000000 0.000000 0.000000 -3.880831 -10.031656 -28.557920 -5.181846 17.669724 5.040512 2.376312 -6.094099 -0.977150 0.000000 0.000000 0.000000
